<svg id="Layer_1" data-name="Layer 1" xmlns="http://www.w3.org/2000/svg" viewBox="0 0 1024 1024"><defs><style>.cls-1{fill:#27a3d3;}.cls-2{fill:#2197c1;}.cls-3,.cls-5{fill:none;}.cls-3{stroke:#d7d7d7;stroke-linecap:round;stroke-miterlimit:10;stroke-width:1.55px;}.cls-4{fill:#fff;}.cls-6{fill:#e89f3d;}.cls-7{fill:#d0d6d8;}.cls-8{fill:#c6cfd3;}.cls-9{fill:#c7cacc;}.cls-10{fill:#afb5b7;}.cls-11{fill:#507082;opacity:0.2;isolation:isolate;}.cls-12{fill:#dc2b74;}.cls-13{fill:#585856;}.cls-14{fill:#fbca9a;}.cls-15{fill:#e6b98f;}.cls-16{fill:#e5e5e5;}.cls-17{fill:#215168;}.cls-18{fill:#23575f;}.cls-19{fill:#416585;}</style></defs><path class="cls-1" d="M1023.68,512a514,514,0,0,1-10.49,103.57C969.66,827.36,795.25,991.4,578.25,1019.43A516.41,516.41,0,0,1,378.12,1006l-.5-.13A508.74,508.74,0,0,1,275.76,966C112.06,880.62.32,709.36.32,512,.32,229.41,229.41.32,512,.32c254.52,0,465.64,185.88,505.07,429.22A515.31,515.31,0,0,1,1023.68,512Z"/><path class="cls-2" d="M1023.68,512a514,514,0,0,1-10.49,103.57C969.66,827.36,795.25,991.4,578.25,1019.43L186,704.17a23.88,23.88,0,0,0,11,2.71h225.6l-5.45,13L394.6,772.71H347.82a23.54,23.54,0,0,0-23.63,23.45v.16H698.38a23.62,23.62,0,0,0-23.62-23.61H628l-25.54-59.83-2.51-6H825.44A24,24,0,0,0,849.34,683V306.13a24.86,24.86,0,0,0-6.26-16.43l174,139.84A515.32,515.32,0,0,1,1023.68,512Z"/><path class="cls-3" d="M252.9,689.55c-1.46-2.07-3-4.2-4.4-6.34"/><path class="cls-3" d="M786.79,668.53c-1.33,2.2-2.67,4.41-4.07,6.54"/><path class="cls-4" d="M836.77,628.63H190l-2.73-327.5A19.27,19.27,0,0,1,189.1,295a21.06,21.06,0,0,1,10.57-9.71q160.56-1.31,321.12-1.29,156.38,0,312.71,1.26l3.27,2.76Z"/><path class="cls-5" d="M511.43,721l1.14,1.06"/><path class="cls-6" d="M511.93,714.87v.2h.14Z"/><path class="cls-4" d="M846.58,309.13v326.3H177.42V311.13A24.12,24.12,0,0,1,188.23,291l.07-.07A23.37,23.37,0,0,1,201,287.16H203v332q93.81-3.1,192.46-3.93,59.87-.5,117.79,0,58-.5,117.8,0,98.69.81,192.46,3.93V287.35a8.47,8.47,0,0,0-1.33-.07h2.73A21.81,21.81,0,0,1,846.58,309.13Z"/><polygon class="cls-7" points="633.72 784.65 390.28 784.65 429.71 692.42 594.35 692.42 633.72 784.65"/><path class="cls-8" d="M348.53,772.84H675.47a23.62,23.62,0,0,1,23.62,23.62H324.91a23.52,23.52,0,0,1,23.44-23.62Z"/><polygon class="cls-9" points="608.07 724.73 415.93 724.73 426.87 698.69 597.12 698.69 608.07 724.73"/><path class="cls-10" d="M824.43,280.59c-.47,0-.94-.07-1.34-.07H201c-14.88,0-27,11.56-27,25.7V635.36H174v47.85A23.84,23.84,0,0,0,197.82,707H826.15a24,24,0,0,0,23.93-23.9V635.36h0V306.29C850.08,292.54,838.71,281.26,824.43,280.59ZM189.16,291.08A20.42,20.42,0,0,1,201,287.27H823.1a8.66,8.66,0,0,1,1.34.07c10.34.66,18.54,8.87,18.54,18.88V628.63H181.16V306.29a18.79,18.79,0,0,1,8-15.15Z"/><circle class="cls-4" cx="512" cy="671" r="21.43"/><path class="cls-11" d="M551.07,358.82H793.56a2.72,2.72,0,0,1,2.73,2.72h0a2.73,2.73,0,0,1-2.73,2.73H551.07a2.73,2.73,0,0,1-2.73-2.73h0A2.72,2.72,0,0,1,551.07,358.82Z"/><rect class="cls-12" x="548.34" y="335.35" width="247.96" height="10.92" rx="5.46"/><rect class="cls-11" x="548.34" y="393.02" width="247.96" height="195.86" rx="15.96"/><path class="cls-13" d="M683.46,342.41c.9,1.29.89,2.86,0,3.51h0L342.87,599.39c-4.85,3.59-12.78.92-17.59-6s-4.63-15.23.41-18.56l354.5-233.58C681.06,340.6,682.55,341.11,683.46,342.41Z"/><path class="cls-14" d="M490.43,534.51a25.4,25.4,0,0,1-3.59,7.22A30.69,30.69,0,0,1,482,547h0l-.1.09a28.62,28.62,0,0,1-6.66,4.24h0l-.27.13c-1.17,10.85-10.41,21.11-21.2,23.52a20.54,20.54,0,0,1-7.27,14.62,19.67,19.67,0,0,1-7.24,3.69h-.14a15.07,15.07,0,0,1-4.82.43h-.1a3.14,3.14,0,0,1-.17.65l-.1.36c-.05.15-.09.3-.14.46-1.14,3.73-3.83,10.49-9.77,14.65a19.79,19.79,0,0,1-11.33,3.56c-5.2,0-13.7-4.17-23-9.91L387.41,602c-.65-.41-1.33-.86-2-1.32-2.17-1.39-4.35-2.85-6.56-4.35l-1.79-1.24-2.88-2-1.08-.78c-3.25-2.32-6.42-4.66-9.39-6.92-.21-.15-.41-.29-.6-.44C353,577.3,345,570.7,343.43,569.39a31.35,31.35,0,0,1-3.74-4.23,0,0,0,0,1,0,0,35.11,35.11,0,0,1-6.37-16.84,44.29,44.29,0,0,1-.27-5.64h0c.2-12.78,5.85-26.79,16.57-38.32l27-28.86a229.52,229.52,0,0,1,32.61-14.63c2.6-.93,5.18-1.8,7.7-2.6,2.86-.11,6.13-.23,9.92-.34L449.18,480l38.48,37.78C491.3,521.87,492.38,528.09,490.43,534.51Z"/><path class="cls-14" d="M500.64,463.33h0c-4.36,3.95-14.13,8.91-22.44,11.7l-.56.18a95,95,0,0,1-24.31,4.61h0c-1.34.08-2.72.14-4.15.17A136.8,136.8,0,0,1,409,474.54L367.3,574.78a27.92,27.92,0,0,1-7,2.42c-2.29.41-4.56.28-6.19-1a10.32,10.32,0,0,1-1.79-2.11,64.33,64.33,0,0,1-5.5-8c-1.57-2.74-7.2-10.12-13.7-17.77a204.65,204.65,0,0,0-15.25-16.46A76.64,76.64,0,0,0,301,519.8h0a147.12,147.12,0,0,0-16.19-6.52c-2.6-.87-5.14-1.64-7.59-2.32-2.57-3.94-5.11-5.28-7-5.76s-4.13-.43-5.46-2.15a4.55,4.55,0,0,1-.87-2.31h0a9.87,9.87,0,0,1,.17-5.67h0a19.83,19.83,0,0,1,3.32-5.67c4.7-6.15,13-14.22,20.88-31.31,9.89-21.51,14-46.42,17.72-45.87.77.11.91,1.24,5.49,6.41,0,0,.85,1,2.29,2.49,3,3.2,7.05,7.11,9.73,9.63,1.12,1,2,1.83,2.46,2.24a69.81,69.81,0,0,0,9.8,7.09c23.49,14.29,55.74,18.3,55.74,18.3,6.44.81,8,.63,25.21,0,2.86-.11,6.13-.23,9.92-.34,7.55-.26,17.14-.56,29.53-.88,33.07-.85,46.07-.83,46.74,2.56C503.13,460.57,502.3,461.88,500.64,463.33Z"/><path class="cls-15" d="M482,547a18.18,18.18,0,0,1-7.09,4.46A80.7,80.7,0,0,1,442,518.27,76.92,76.92,0,0,0,482,547Z"/><path class="cls-15" d="M453.69,575a142.57,142.57,0,0,1-39.49-43.49,97.38,97.38,0,0,0,30.54,32.08,99,99,0,0,0,16.18,8.5A28.16,28.16,0,0,1,453.69,575Z"/><path class="cls-15" d="M494.6,467.58c-2.61,1.51-4.66,2.53-5.06,2.72a101.51,101.51,0,0,1-10.19,4.34,92,92,0,0,1-26,5.19c5.24-1.1,10.83-2.51,16.67-4.33a180.64,180.64,0,0,0,31.84-13.38l-.72.74A30.54,30.54,0,0,1,494.6,467.58Z"/><path class="cls-15" d="M439.19,593.31a10,10,0,0,1-5.07.46l-.41,1.48c-1-.84-2.61-2.12-4.56-3.6-4-3-6.89-4.36-9.13-6.23-2.87-2.41-7-5.75-12.77-9.91,5.12,3.08,9.24,5.71,12,7.51a98,98,0,0,0,10.84,6.57,65.6,65.6,0,0,0,9.06,3.73Z"/><path class="cls-15" d="M268,503.94,282,512.36A64.05,64.05,0,0,1,306.42,525c13.61,11.53,29.55,35.83,32.75,39.7.9,1.1,2.22,2.69,4.14,4.71,5.06,5.32,8.37,7.39,20.27,16,9.2,6.69,9.85,7.35,15.16,11,4.31,3,8.05,5.34,10.88,7.11a220.09,220.09,0,0,1-33.26-30.73c-.7-.8-2.13-2.4-4.43-5.16-21-25.3-28.41-40.76-39.18-52.47-8.29-9-22.6-20.27-48.42-26.75Q266.19,496.17,268,503.94Z"/><polygon class="cls-16" points="338.97 435.37 335.79 439.94 293.92 500.15 287.07 509.99 284.82 513.23 283.6 514.98 277.25 510.93 277.24 510.91 277.23 510.91 270.6 506.69 264.81 503 181.16 449.66 181.16 330.75 187.78 321.22 326.67 426.07 338.97 435.37"/><path class="cls-17" d="M326.67,426.05v.06l-3.1,4.46L279.9,493.35l-7,10.15-2.21,3.17-.84,1.2-1,1.38a6.35,6.35,0,0,1-8.56,1.86L181.16,461.5V307.13l3.4,2.55.25.18,2.23,1.71,8,6.14,5.32,4.09,125.05,95.66A6.37,6.37,0,0,1,326.67,426.05Z"/><path class="cls-18" d="M284.18,500.41h0a4,4,0,1,1-5.63,1,4,4,0,0,1,5.55-1.06l.09.07Z"/><polygon class="cls-19" points="187.04 311.6 181.16 319.6 181.16 307.31 183.88 309.31 187.04 311.6"/></svg>